<?xml version="1.0" encoding="UTF-8" standalone="no"?>
<!-- Uploaded to: SVG Repo, www.svgrepo.com, Generator: SVG Repo Mixer Tools -->

<svg
   fill="#000000"
   height="622.02252"
   width="857.3396"
   version="1.1"
   id="Layer_1"
   viewBox="0 0 68.587168 49.761802"
   enable-background="new 0 0 64 64"
   xml:space="preserve"
   sodipodi:docname="left-quote-svgrepo-com.svg"
   inkscape:version="1.2.1 (9c6d41e410, 2022-07-14)"
   xmlns:inkscape="http://www.inkscape.org/namespaces/inkscape"
   xmlns:sodipodi="http://sodipodi.sourceforge.net/DTD/sodipodi-0.dtd"
   xmlns="http://www.w3.org/2000/svg"
   xmlns:svg="http://www.w3.org/2000/svg"><defs
   id="defs10">
	
	
<filter
   inkscape:collect="always"
   style="color-interpolation-filters:sRGB"
   id="filter849"
   x="-0.050108918"
   y="-0.070878489"
   width="1.100205"
   height="1.1418473"><feGaussianBlur
     inkscape:collect="always"
     stdDeviation="0.83586851"
     id="feGaussianBlur851" /></filter></defs><sodipodi:namedview
   id="namedview8"
   pagecolor="#ffffff"
   bordercolor="#000000"
   borderopacity="0.25"
   inkscape:showpageshadow="2"
   inkscape:pageopacity="0.0"
   inkscape:pagecheckerboard="0"
   inkscape:deskcolor="#d1d1d1"
   showgrid="false"
   inkscape:zoom="0.295"
   inkscape:cx="38.983051"
   inkscape:cy="618.64407"
   inkscape:window-width="1440"
   inkscape:window-height="890"
   inkscape:window-x="-6"
   inkscape:window-y="-6"
   inkscape:window-maximized="1"
   inkscape:current-layer="Layer_1" />
<g
   id="g293"
   style="mix-blend-mode:normal;fill:#000000;fill-opacity:1;stroke:#000000;stroke-width:2.4;stroke-dasharray:none;stroke-opacity:1;filter:url(#filter849)"
   transform="translate(2.294424,2.2918481)"><path
     d="m 50.628629,16.813636 c -0.128899,-1.393499 -0.0303,-5.181601 3.598598,-10.4492013 0.274502,-0.3975 0.224701,-0.933599 -0.116195,-1.274399 -1.479504,-1.4795 -2.395504,-2.413101 -3.037999,-3.0664 -0.844802,-0.861401 -1.230503,-1.253901 -1.795002,-1.7657003 -0.376903,-0.3388004 -0.9472,-0.3446999 -1.328102,-0.0126 C 41.62473,5.7492347 34.599332,17.122235 35.615934,31.055837 c 0.595695,8.181599 6.563495,14.120098 14.189495,14.120098 7.826099,0 14.193298,-6.3662 14.193298,-14.192398 0,-7.549801 -5.925694,-13.741202 -13.370098,-14.169901 z m -0.8232,26.362299 c -6.548901,0 -11.6768,-5.158199 -12.195302,-12.264599 0,0 0,0 0,-9.99e-4 C 36.466531,15.239436 45.78193,5.0607347 48.596429,2.3654357 c 0.274399,0.2705 0.587898,0.588799 1.049801,1.059499 0.556599,0.566401 1.318397,1.3418 2.470699,2.498101 -4.4053,6.7870993 -3.5742,11.6229993 -3.209999,12.3164003 0.172897,0.3291 0.527397,0.5508 0.898499,0.5508 6.723602,0 12.193298,5.469698 12.193298,12.193301 0,6.722698 -5.469696,12.192398 -12.193298,12.192398 z"
     id="path289"
     style="fill:#000000;fill-opacity:1;stroke:#000000;stroke-width:2.4;stroke-dasharray:none;stroke-opacity:1" /><path
     d="m 15.113032,16.813636 c -0.1299,-1.389601 -0.0342,-5.174801 3.598599,-10.4492013 0.2735,-0.3975 0.2246,-0.933599 -0.1162,-1.274399 -1.4766,-1.4766 -2.391599,-2.4092 -3.0332,-3.0625 -0.8476,-0.863301 -1.2344,-1.2569 -1.798799,-1.7696003 -0.377,-0.3388004 -0.9473,-0.3437004 -1.328101,-0.0136 C 6.1101323,5.7482357 -0.91626782,17.119335 0.09833198,31.055836 v 9.99e-4 c 0.5977,8.1806 6.56640012,14.119099 14.19239902,14.119099 7.8262,0 14.193401,-6.366199 14.193401,-14.192398 0,-7.5507 -5.9258,-13.7431 -13.3711,-14.1699 z m -0.8223,26.362299 c -6.5478001,0 -11.6786995,-5.158199 -12.1982002,-12.265598 v 9.99e-4 C 0.95193178,15.236535 10.267331,5.0597347 13.081732,2.3654357 c 0.2754,0.2705 0.5899,0.5908 1.0528,1.0625 0.555599,0.566399 1.3164,1.3408 2.466799,2.4951 -4.405299,6.7880993 -3.5742,11.6229993 -3.209999,12.3153993 0.1729,0.329102 0.5283,0.551802 0.8994,0.551802 6.7237,0 12.1934,5.469698 12.1934,12.1933 0,6.722698 -5.4697,12.192398 -12.1934,12.192398 z"
     id="path291"
     style="fill:#000000;fill-opacity:1;stroke:#000000;stroke-width:2.4;stroke-dasharray:none;stroke-opacity:1" /></g><g
   id="g286"
   style="fill:#bdcacd;fill-opacity:1"
   transform="translate(2.4300172,0.5291362)"><path
     d="m 50.628629,16.813636 c -0.128899,-1.393499 -0.0303,-5.181601 3.598598,-10.4492013 0.274502,-0.3975 0.224701,-0.933599 -0.116195,-1.274399 -1.479504,-1.4795 -2.395504,-2.413101 -3.037999,-3.0664 -0.844802,-0.861401 -1.230503,-1.253901 -1.795002,-1.7657003 -0.376903,-0.3388004 -0.9472,-0.3446999 -1.328102,-0.0126 C 41.62473,5.7492347 34.599332,17.122235 35.615934,31.055837 c 0.595695,8.181599 6.563495,14.120098 14.189495,14.120098 7.826099,0 14.193298,-6.3662 14.193298,-14.192398 0,-7.549801 -5.925694,-13.741202 -13.370098,-14.169901 z m -0.8232,26.362299 c -6.548901,0 -11.6768,-5.158199 -12.195302,-12.264599 0,0 0,0 0,-9.99e-4 C 36.466531,15.239436 45.78193,5.0607347 48.596429,2.3654357 c 0.274399,0.2705 0.587898,0.588799 1.049801,1.059499 0.556599,0.566401 1.318397,1.3418 2.470699,2.498101 -4.4053,6.7870993 -3.5742,11.6229993 -3.209999,12.3164003 0.172897,0.3291 0.527397,0.5508 0.898499,0.5508 6.723602,0 12.193298,5.469698 12.193298,12.193301 0,6.722698 -5.469696,12.192398 -12.193298,12.192398 z"
     id="path2"
     style="fill:#bdcacd;fill-opacity:1" /><path
     d="m 15.113032,16.813636 c -0.1299,-1.389601 -0.0342,-5.174801 3.598599,-10.4492013 0.2735,-0.3975 0.2246,-0.933599 -0.1162,-1.274399 -1.4766,-1.4766 -2.391599,-2.4092 -3.0332,-3.0625 -0.8476,-0.863301 -1.2344,-1.2569 -1.798799,-1.7696003 -0.377,-0.3388004 -0.9473,-0.3437004 -1.328101,-0.0136 C 6.1101323,5.7482357 -0.91626782,17.119335 0.09833198,31.055836 v 9.99e-4 c 0.5977,8.1806 6.56640012,14.119099 14.19239902,14.119099 7.8262,0 14.193401,-6.366199 14.193401,-14.192398 0,-7.5507 -5.9258,-13.7431 -13.3711,-14.1699 z m -0.8223,26.362299 c -6.5478001,0 -11.6786995,-5.158199 -12.1982002,-12.265598 v 9.99e-4 C 0.95193178,15.236535 10.267331,5.0597347 13.081732,2.3654357 c 0.2754,0.2705 0.5899,0.5908 1.0528,1.0625 0.555599,0.566399 1.3164,1.3408 2.466799,2.4951 -4.405299,6.7880993 -3.5742,11.6229993 -3.209999,12.3153993 0.1729,0.329102 0.5283,0.551802 0.8994,0.551802 6.7237,0 12.1934,5.469698 12.1934,12.1933 0,6.722698 -5.4697,12.192398 -12.1934,12.192398 z"
     id="path4"
     style="fill:#bdcacd;fill-opacity:1" /></g>
</svg>
