<?xml version="1.0" encoding="UTF-8" standalone="no"?>
<!-- Uploaded to: SVG Repo, www.svgrepo.com, Generator: SVG Repo Mixer Tools -->

<svg
   fill="#000000"
   height="644.86084"
   width="880.13629"
   version="1.1"
   id="Layer_1"
   viewBox="0 0 70.410903 51.588867"
   enable-background="new 0 0 64 64"
   xml:space="preserve"
   sodipodi:docname="right-quote-svgrepo-com.svg"
   inkscape:version="1.2.1 (9c6d41e410, 2022-07-14)"
   xmlns:inkscape="http://www.inkscape.org/namespaces/inkscape"
   xmlns:sodipodi="http://sodipodi.sourceforge.net/DTD/sodipodi-0.dtd"
   xmlns="http://www.w3.org/2000/svg"
   xmlns:svg="http://www.w3.org/2000/svg"><defs
   id="defs1997"><filter
     inkscape:collect="always"
     style="color-interpolation-filters:sRGB"
     id="filter9001"
     x="-0.050096689"
     y="-0.070967637"
     width="1.1002063"
     height="1.1419353"><feGaussianBlur
       inkscape:collect="always"
       stdDeviation="0.83586811"
       id="feGaussianBlur9003" /></filter></defs><sodipodi:namedview
   id="namedview1995"
   pagecolor="#ffffff"
   bordercolor="#000000"
   borderopacity="0.25"
   inkscape:showpageshadow="2"
   inkscape:pageopacity="0.0"
   inkscape:pagecheckerboard="0"
   inkscape:deskcolor="#d1d1d1"
   showgrid="false"
   inkscape:zoom="0.59"
   inkscape:cx="348.30508"
   inkscape:cy="300.84746"
   inkscape:window-width="1440"
   inkscape:window-height="890"
   inkscape:window-x="-6"
   inkscape:window-y="-6"
   inkscape:window-maximized="1"
   inkscape:current-layer="Layer_1" />
<g
   id="g4995"
   style="fill:#000000;fill-opacity:1;stroke:#000000;stroke-width:2.4;stroke-dasharray:none;stroke-opacity:1;filter:url(#filter9001)"
   transform="translate(3.2050403,-6.2055662)">
	<path
   d="m 14.193342,9.4116497 c -7.8260992,0 -14.1922987,6.3662003 -14.1922987,14.1924003 0,7.549801 5.9247999,13.742099 13.3690997,14.169899 0.1289,1.391601 0.0322,5.179702 -3.5977002,10.449199 -0.2743997,0.397503 -0.2245998,0.933602 0.1162052,1.274403 1.485395,1.485397 2.403395,2.420898 3.045895,3.075199 0.840899,0.855499 1.2247,1.246101 1.786199,1.755901 0.1904,0.172799 0.4306,0.259697 0.671906,0.259697 0.234295,0 0.467694,-0.082 0.656195,-0.245098 6.325199,-5.503898 13.351599,-16.875999 12.334999,-30.8115 -0.595701,-8.1816 -6.563499,-14.1201003 -14.1905,-14.1201003 z m 1.209001,42.8104993 c -0.2724,-0.268498 -0.583,-0.5849 -1.041001,-1.0508 -0.556599,-0.567299 -1.3203,-1.3447 -2.478499,-2.506798 4.4053,-6.788101 3.573199,-11.623001 3.209,-12.316403 -0.172901,-0.329097 -0.5274,-0.550796 -0.898501,-0.550796 -6.7225993,0 -12.1922987,-5.469702 -12.1922987,-12.193302 0,-6.7227 5.4696999,-12.1924 12.1922987,-12.1924 6.548901,0 11.677799,5.158201 12.196306,12.264601 1.142594,15.6739 -8.172805,25.850601 -10.987305,28.545898 z"
   id="path4991"
   style="fill:#000000;fill-opacity:1;stroke:#000000;stroke-width:2.4;stroke-dasharray:none;stroke-opacity:1" />
	<path
   d="m 63.90044,23.53175 v -10e-4 C 63.302742,15.35015 57.334042,9.4116497 49.709042,9.4116497 c -7.826199,0 -14.193394,6.3662003 -14.193394,14.1924003 0,7.549801 5.925793,13.742099 13.371094,14.169899 0.128906,1.390602 0.0312,5.1767 -3.599602,10.449199 -0.274399,0.397503 -0.224598,0.933602 0.116203,1.274403 1.4795,1.4795 2.395501,2.413097 3.038098,3.066399 0.8447,0.861301 1.230499,1.253898 1.794903,1.765602 0.190399,0.171898 0.431598,0.258796 0.671897,0.258796 0.234406,0 0.4678,-0.082 0.656201,-0.246097 6.325206,-5.503903 13.351596,-16.8759 12.335998,-30.810501 z M 50.917942,52.222149 c -0.274399,-0.2705 -0.587799,-0.588799 -1.049801,-1.059498 -0.556599,-0.566502 -1.317299,-1.341801 -2.470699,-2.4981 4.4053,-6.789101 3.574299,-11.623001 3.210998,-12.316403 -0.172897,-0.328098 -0.528297,-0.550796 -0.899399,-0.550796 -6.723701,0 -12.193393,-5.469702 -12.193393,-12.193302 0,-6.7227 5.469692,-12.1924 12.193393,-12.1924 6.547799,0 11.6777,5.158201 12.197201,12.2656 v -0.001 c 1.141598,15.671898 -8.173801,25.850602 -10.9883,28.545899 z"
   id="path4993"
   style="fill:#000000;fill-opacity:1;stroke:#000000;stroke-width:2.4;stroke-dasharray:none;stroke-opacity:1" />
</g><g
   id="Quotemarks-right"
   style="fill:#bdcacd;fill-opacity:1"
   transform="translate(3.2050403,-7.5614984)">
	<path
   d="m 14.193342,9.4116497 c -7.8260992,0 -14.1922987,6.3662003 -14.1922987,14.1924003 0,7.549801 5.9247999,13.742099 13.3690997,14.169899 0.1289,1.391601 0.0322,5.179702 -3.5977002,10.449199 -0.2743997,0.397503 -0.2245998,0.933602 0.1162052,1.274403 1.485395,1.485397 2.403395,2.420898 3.045895,3.075199 0.840899,0.855499 1.2247,1.246101 1.786199,1.755901 0.1904,0.172799 0.4306,0.259697 0.671906,0.259697 0.234295,0 0.467694,-0.082 0.656195,-0.245098 6.325199,-5.503898 13.351599,-16.875999 12.334999,-30.8115 -0.595701,-8.1816 -6.563499,-14.1201003 -14.1905,-14.1201003 z m 1.209001,42.8104993 c -0.2724,-0.268498 -0.583,-0.5849 -1.041001,-1.0508 -0.556599,-0.567299 -1.3203,-1.3447 -2.478499,-2.506798 4.4053,-6.788101 3.573199,-11.623001 3.209,-12.316403 -0.172901,-0.329097 -0.5274,-0.550796 -0.898501,-0.550796 -6.7225993,0 -12.1922987,-5.469702 -12.1922987,-12.193302 0,-6.7227 5.4696999,-12.1924 12.1922987,-12.1924 6.548901,0 11.677799,5.158201 12.196306,12.264601 1.142594,15.6739 -8.172805,25.850601 -10.987305,28.545898 z"
   id="path1989"
   style="fill:#bdcacd;fill-opacity:1" />
	<path
   d="m 63.90044,23.53175 v -10e-4 C 63.302742,15.35015 57.334042,9.4116497 49.709042,9.4116497 c -7.826199,0 -14.193394,6.3662003 -14.193394,14.1924003 0,7.549801 5.925793,13.742099 13.371094,14.169899 0.128906,1.390602 0.0312,5.1767 -3.599602,10.449199 -0.274399,0.397503 -0.224598,0.933602 0.116203,1.274403 1.4795,1.4795 2.395501,2.413097 3.038098,3.066399 0.8447,0.861301 1.230499,1.253898 1.794903,1.765602 0.190399,0.171898 0.431598,0.258796 0.671897,0.258796 0.234406,0 0.4678,-0.082 0.656201,-0.246097 6.325206,-5.503903 13.351596,-16.8759 12.335998,-30.810501 z M 50.917942,52.222149 c -0.274399,-0.2705 -0.587799,-0.588799 -1.049801,-1.059498 -0.556599,-0.566502 -1.317299,-1.341801 -2.470699,-2.4981 4.4053,-6.789101 3.574299,-11.623001 3.210998,-12.316403 -0.172897,-0.328098 -0.528297,-0.550796 -0.899399,-0.550796 -6.723701,0 -12.193393,-5.469702 -12.193393,-12.193302 0,-6.7227 5.469692,-12.1924 12.193393,-12.1924 6.547799,0 11.6777,5.158201 12.197201,12.2656 v -0.001 c 1.141598,15.671898 -8.173801,25.850602 -10.9883,28.545899 z"
   id="path1991"
   style="fill:#bdcacd;fill-opacity:1" />
</g>
</svg>
